<?xml version="1.0" encoding="UTF-8" standalone="no"?>
<svg width="931px" height="173px" viewBox="0 0 931 173" version="1.1" xmlns="http://www.w3.org/2000/svg" xmlns:xlink="http://www.w3.org/1999/xlink">
    <!-- Generator: Sketch 50 (54983) - http://www.bohemiancoding.com/sketch -->
    <title>Group</title>
    <desc>Created with Sketch.</desc>
    <defs></defs>
    <g id="Page-1" stroke="none" stroke-width="1" fill="none" fill-rule="evenodd">
        <g id="Group" fill-rule="nonzero">
            <path d="M261.7,63.3 C261.9,63.1 262.1,62.9 262.5,62.6 C266.5,59.6 262.2,59.7 258.9,59.7 L249.6,59.7 C248.7,59.6 247.7,59.6 246.6,59.6 C245.9,59.6 245.2,59.6 244.7,59.6 L243.7,59.6 C242.7,59.6 241.8,59.6 240.9,59.7 L239.5,59.7 L239.5,59.8 C214.6,61.4 210.9,77.7 210.4,90.2 L210.6,135.5 C210.5,139 211.3,141.5 213,143.2 C214.5,144.8 216.8,145.6 219.7,145.6 C222.6,145.6 224.8,144.8 226.4,143.2 C228.1,141.5 229,138.9 229,135.4 L229,92.9 C229.3,81.4 233.2,77.2 243.2,77.1 C243.4,77.1 243.5,77.1 243.6,77.1 L248.2,77.1 C249.7,77.1 251.4,76.5 252.3,74.8 C254.5,70.3 257.6,66.4 261.7,63.3" id="Fill-1" fill="#2A2F7C"></path>
            <path d="M280.9,79.9 C288.1,76.2 296.1,76.4 302.4,80.4 C306.6,83.1 308.3,87.3 307.3,92.9 L274.6,92.9 C274.4,86.2 276.4,82.3 280.9,79.9 M399.4,64 C399.6,63.8 399.8,63.7 400.1,63.5 C400.3,63.3 400.6,63 401.1,62.5 C405.1,59.5 400.8,59.6 397.5,59.6 L397.4,59.6 C389.1,59.6 379.7,59.6 369,59.6 C367.4,59.5 365.9,59.5 364.5,59.5 C361.2,59.5 358,59.7 352.5,60.3 C343.4,61.2 336.5,67.1 333.6,76.3 C332.1,81.2 331.7,85.8 332.5,90 C332.6,90.6 332.7,91.2 332.9,91.7 C332.9,91.7 332.9,91.7 332.9,91.8 C333.1,92.5 333.3,93.2 333.6,93.8 C333.9,94.6 334.3,95.4 334.7,96.2 C337.7,101.7 343.4,105.6 351,107.6 C362.1,110.6 369,113.9 369.1,121.2 C368.8,125.2 366.7,127.7 362.8,128.6 C360,129.3 356.7,129.3 353.8,129.3 L292.2,128.9 C287.5,129 283.8,128.2 281.1,126.5 C276.4,123.6 274.3,118.2 274.9,110.5 L275,110.5 C276.6,110.5 278.3,110.5 279.9,110.5 C283.1,110.5 286.1,110.5 289.1,110.5 C296,110.5 302.5,110.5 309.9,110.3 C320.2,110 325.9,104.3 326.5,93.7 C327.2,81 320,69 308.5,63.7 C298,58.8 288.9,58.5 277.1,62.4 C264.1,66.7 256.9,76.1 256.3,89.4 C255.9,99.7 255.9,109 256.4,117.9 C257.1,129.2 263,137.6 273.5,142.4 C278.4,144.6 283.5,145.9 289,146.2 L289,146.3 L357.5,146.4 C375.2,146.1 386.5,137.4 387.7,121.8 C387.8,120 387.8,117.8 387.3,115.4 C385.5,106.6 378.5,97.5 367.3,94 C367.2,94 367.2,93.9 367.1,93.9 C364.8,93.1 362.6,92.5 360.7,91.9 C355.8,90.5 353,89.6 351.6,87.8 C350,86 350.1,84 350.5,82.4 C350.7,81.5 351,80.7 351.7,80 C353.4,78.2 356.6,77.2 358.8,77.1 C362,77 364,77 366.9,77 L373.4,77 C373.7,77 374.1,77.1 374.4,77.1 C374.7,77.1 375.1,77.1 375.4,77 L387.8,77 C389,76.7 390.1,76 390.8,74.6 C390.9,74.3 391,74.2 391.1,74.1 C391.4,73.5 391.7,72.9 392.1,72.3 C394.2,69.2 396.5,66.4 399.4,64" id="Fill-3" fill="#2A2F7C"></path>
            <path d="M848.8,114.7 C848.4,122.1 844.5,126.8 837.8,128.2 C835.8,128.6 833.7,128.8 831.8,128.8 C829.8,128.8 827.8,128.6 825.7,128.2 C819.1,126.9 815.2,122.1 814.7,114.7 C814.6,112.8 814.5,108.2 814.5,103 C814.5,97.8 814.6,93.2 814.7,91.3 C815.1,83.9 819,79.2 825.7,77.8 C827.7,77.4 829.7,77.2 831.7,77.2 C833.7,77.2 835.7,77.4 837.7,77.8 C844.3,79.1 848.2,83.9 848.7,91.3 C848.8,93.6 848.9,98.9 848.9,103 C849,107.1 848.9,112.4 848.8,114.7 Z M868.1,115 C868.2,114 868.2,113 868.3,112 C868.3,111.8 868.4,111.7 868.4,111.5 C868.5,108.5 868.6,105.8 868.6,103 C868.6,100.3 868.5,97.5 868.4,94.5 C868.4,94.3 868.4,94.1 868.3,94 C868.2,93 868.2,92 868.1,90.9 C867.7,85.9 866.2,80.9 863.4,75.6 C858,65.5 846.3,59.5 831.8,59.5 C817.5,59.5 805.8,65.5 800.4,75.6 C797.6,80.9 796,85.9 795.7,90.9 C795.6,91.9 795.6,92.9 795.5,93.9 C795.5,94.1 795.4,94.2 795.4,94.4 C795.3,97.4 795.2,100.2 795.2,102.9 C795.2,105.6 795.3,108.4 795.4,111.4 C795.4,111.6 795.4,111.8 795.5,111.9 C795.6,112.9 795.6,113.9 795.7,115 C796,119.5 797.4,124.1 799.7,128.8 C799,128.8 798.4,128.8 797.9,128.8 C796.1,128.8 792.9,128.6 791.5,128.3 C789.1,127.8 787.2,126.8 785.8,125.3 C783.9,123.3 782.8,120.4 782.3,116.3 C782.2,115.3 782.1,114.1 782.1,112.9 C782.1,110.1 782.1,107.3 782.1,104.5 C782.1,99.9 782.1,95.4 782.1,90.8 C782.1,72.8 771.4,61.4 752.8,59.7 C744.1,58.9 735,61.6 728,67.1 C727.9,67 727.7,66.8 727.6,66.7 C721.9,61.8 714.4,59.2 705.7,59.2 C699.6,59.2 693.2,60.6 687.7,63.1 C673.9,69.4 672.3,82.4 672.4,91.6 L672.4,97.6 C672.4,109.6 672.5,122 672.4,134.2 C672.4,137.1 672.7,140.8 675.1,143.3 C676.7,144.9 679,145.8 682,145.8 C682,145.8 682.1,145.8 682.1,145.8 C691.6,145.7 691.6,137.3 691.6,134.1 C691.5,119.1 691.5,103.6 691.6,88.2 C691.7,81.5 695.7,77.9 703.7,77.6 C704.1,77.6 704.4,77.6 704.8,77.6 C713.9,77.6 718.1,81.5 718.3,90.3 C718.5,103.1 718.5,116.2 718.4,128.8 L718.4,134.2 C718.4,137.4 718.6,141.1 721,143.5 C722.6,145.1 724.8,145.9 727.8,145.9 C730.8,145.9 733.1,145 734.7,143.4 C737,141 737.3,137.5 737.3,134.3 C737.2,120.1 737.2,105 737.3,88.4 C737.4,80 743.8,77.9 749.2,77.7 C749.6,77.7 750,77.7 750.3,77.7 C759,77.7 763.4,81.9 763.5,90.3 C763.6,98.7 763.6,107.4 763.6,116.5 C764.6,136.5 775,143.4 785.8,145.6 C789.5,146.4 795,146.6 798.5,146.6 C798.8,146.6 799.8,146.6 801.3,146.6 C803.2,146.6 805.8,146.6 808.7,146.6 C812.5,146.6 816.7,146.6 820.5,146.6 C825.2,146.6 828.3,146.6 829.8,146.5 C830.5,146.5 831.2,146.6 831.9,146.6 L832,146.6 C846.3,146.6 858,140.6 863.4,130.5 C866.1,125 867.7,120 868.1,115 Z" id="Fill-5" fill="#2A2F7C"></path>
            <path d="M419.6,79.9 C426.8,76.2 434.8,76.4 441.1,80.4 C445.3,83.1 447,87.3 446,92.9 L413.3,92.9 C413.1,86.2 415,82.3 419.6,79.9 M525.3,77.2 C527.3,77.2 531.2,77.4 532.2,71.1 C532.7,68.2 532.2,66 531.2,64 C530,61.9 528.4,60.7 526.2,60.2 C524.3,59.8 521.8,59.6 519.7,59.6 L505,59.6 C476.3,59.6 472.3,77 471.8,90.2 L471.9,98.6 L471.9,112 L471.9,112.8 C471.9,125.2 469.7,128.5 459.6,128.8 C459,128.8 458.4,128.8 457.7,128.8 C456.1,128.8 455.6,128.8 455.1,128.8 L453.9,128.8 L450.4,128.8 C450.1,128.8 449.8,128.8 449.6,128.8 L431,128.8 C426.3,128.9 422.6,128.1 419.9,126.4 C415.2,123.5 413.1,118.1 413.7,110.4 L413.8,110.4 C415.4,110.4 417.1,110.4 418.7,110.4 C421.9,110.4 424.9,110.4 427.9,110.4 C434.8,110.4 441.3,110.4 448.7,110.2 C459,109.9 464.7,104.2 465.3,93.6 C466,80.9 458.8,68.9 447.3,63.6 C436.8,58.8 427.5,58.4 415.9,62.3 C402.9,66.7 395.7,76 395.2,89.3 C394.8,99.6 394.8,108.9 395.3,117.8 C396,129.1 401.9,137.5 412.4,142.3 C417.3,144.5 422.4,145.8 427.9,146.1 L427.9,146.2 L429.2,146.2 C429.3,146.2 429.4,146.2 429.4,146.2 C429.4,146.2 429.5,146.2 429.5,146.2 C429.5,146.2 429.6,146.2 429.6,146.2 L453.6,146.2 C453.8,146.2 454,146.2 454.2,146.2 C454.7,146.2 455.1,146.2 455.5,146.2 L457,146.2 L457.1,146.2 C457.9,146.2 458.7,146.2 459.5,146.2 C476.6,146 490.3,142.6 490.3,115.4 L490.4,111.9 L490.4,92.9 C490.7,81.4 494.6,77.2 504.6,77.1 L522.5,77.2 C523.1,77.3 524.7,77.2 525.3,77.2" id="Fill-7" fill="#2A2F7C"></path>
            <path d="M910.5,94.1 C910.4,94.1 910.4,94 910.3,94 C908,93.2 905.8,92.6 903.9,92 C899,90.6 896.2,89.7 894.8,87.9 C893.2,86.1 893.3,84.1 893.7,82.5 C893.9,81.6 894.2,80.8 894.9,80.1 C896.6,78.3 899.8,77.3 902,77.2 L903,77.2 L912.1,77.2 L917.2,77.2 C917.9,77.2 919.5,77.2 920.1,77.2 C922.1,77.2 926,77.4 927,71.1 C927.5,68.2 927,66 926,64 C924.8,61.9 923.2,60.7 921,60.2 C919.1,59.8 916.6,59.6 914.5,59.6 L908.4,59.6 L908.4,59.7 C904.4,59.6 900.3,59.6 895.8,60.2 C886.7,61.5 879.6,67 876.7,76.3 C875.6,79.8 875.1,83.2 875.2,86.4 C875.4,87.8 875.6,89.1 875.7,90.5 C875.7,90.6 875.7,90.6 875.7,90.7 C876.1,92.6 876.8,94.4 877.7,96.1 C880.7,101.6 886.4,105.5 894,107.5 C905.1,110.5 912,113.8 912.1,121.1 C911.8,125.1 909.7,127.6 905.8,128.5 C903,129.2 899.7,129.2 896.8,129.2 L875.4,129.1 C873.8,129.1 871.9,129.7 871,131.7 C870.9,131.8 870.9,131.9 870.8,132 C870.6,132.3 870.5,132.6 870.3,133 C870.2,133.3 870,133.5 869.9,133.8 C868.1,136.9 865.9,139.6 863.3,142 C862.9,142.4 862.4,142.7 862,143 C861.8,143.2 861.5,143.5 861.1,143.8 C858.2,146 859.6,146.5 861.9,146.6 L901.3,146.9 C918.8,146.7 929.9,137.4 931,121.9 C931.9,111.5 924.5,98.5 910.5,94.1" id="Fill-9" fill="#2A2F7C"></path>
            <path d="M36,92.2 C34.4,108.4 38.5,123.9 43,131.5 C44.7,134.3 47,136.1 48.7,135.8 C50.2,135.6 52.6,133.2 54.1,127.1 C58.6,108.8 55.7,93.3 54.2,85.1 C53.5,81.1 50.6,72.3 44.7,62.3 C40.9,69.8 37.1,80.3 36,92.2" id="Fill-11" fill="#4579BD"></path>
            <path d="M44.417683,43.034773 C49.317683,36.934773 54.417683,31.134773 65.417683,25.034773 C77.917683,18.134773 95.117683,17.234773 110.317683,22.734773 C124.417683,27.834773 139.317683,43.734773 138.717683,66.434773 C138.217683,83.934773 130.717683,96.834773 115.517683,105.834773 C115.117683,106.034773 114.717683,106.334773 114.317683,106.534773 C115.817683,109.634773 117.217683,112.234773 118.217683,113.934773 C127.617683,127.734773 137.117683,138.634773 158.317683,132.234773 C166.517683,119.034773 171.317683,103.334773 171.317683,86.634773 C171.317683,39.034773 133.017683,0.534773 85.717683,0.534773 C62.417683,0.534773 41.317683,9.934773 25.817683,25.134773 C33.217683,30.634773 39.317683,36.734773 44.417683,43.034773" id="Fill-13" fill="#4EC1E0"></path>
            <path d="M104,110.07152 C94.3,111.97152 84.9,110.37152 80.7,108.47152 C75.7,106.27152 71.9,101.37152 70.8,95.77152 C69.7,90.47152 71.1,85.27152 74.8,81.17152 C78.4,77.27152 83.2,75.27152 88.3,75.57152 C93.8,75.97152 99.1,79.07152 102.4,83.87152 C104.4,86.77152 106.9,91.67152 109.5,96.97152 C109.7,96.87152 109.9,96.77152 110.1,96.67152 C122,89.57152 127.6,80.17152 127.9,66.27152 C128.4,48.87152 117.2,36.77152 106.6,32.87152 C94.2,28.37152 80.4,28.97152 70.5,34.47152 C60.4,40.07152 56.4,45.07152 51.4,51.37152 C51.1,51.77152 51,51.87152 50.9,51.97152 C59.5,65.17152 63.6,77.47152 64.6,83.07152 C66.3,92.17152 69.5,109.07152 64.4,129.67152 C61.1,142.87152 54.1,145.77152 50.2,146.37152 C49.6,146.47152 48.9,146.47152 48.3,146.47152 C42.8,146.47152 37.3,142.97152 33.8,136.87152 C28.3,127.57152 23.6,109.77152 25.4,91.07152 C27,74.87152 32.8,61.07152 38,52.17152 C33.1,45.67152 26.9,39.27152 19.3,33.67152 L18.7,33.27152 C7,47.87152 0,66.47152 0,86.77152 C0,134.37152 38.3,172.87152 85.6,172.87152 C110.6,172.87152 133.1,162.07152 148.7,144.87152 C126.9,145.97152 116.1,130.07152 109.2,119.97152 C107.7,117.37152 106,113.87152 104,110.07152 Z" id="Fill-16" fill="#77BD43"></path>
            <path d="M87.6,86.3 C87.5,86.3 87.3,86.3 87.2,86.3 C85.5,86.3 84,87 82.7,88.4 C81.3,89.9 80.8,91.6 81.2,93.6 C81.6,95.8 83.2,97.9 85.1,98.7 C87.2,99.6 92.9,100.6 99.1,100 C97,95.9 95.1,92.1 93.7,90.1 C92.1,87.8 89.9,86.4 87.6,86.3" id="Fill-19" fill="#EC008C"></path>
            <path d="M85.1,98.7 C83.3,97.9 81.7,95.8 81.2,93.6 C80.8,91.7 81.3,89.9 82.7,88.4 C84,87 85.5,86.3 87.2,86.3 C87.3,86.3 87.5,86.3 87.6,86.3 C89.9,86.5 92.2,87.9 93.7,90.1 C95.1,92.1 97.1,95.9 99.1,100 C92.9,100.6 87.1,99.6 85.1,98.7 M54.1,85.1 C55.7,93.4 58.5,108.8 54,127.1 C52.5,133.2 50.2,135.6 48.6,135.8 C46.9,136 44.5,134.3 42.9,131.5 C38.4,123.9 34.4,108.4 35.9,92.2 C37,80.3 40.8,69.9 44.6,62.3 C50.5,72.2 53.4,81.1 54.1,85.1 M118.1,114 C117.1,112.3 115.7,109.6 114.2,106.6 C114.6,106.4 115,106.2 115.4,105.9 C130.5,96.9 138.1,84 138.6,66.5 C139.2,43.8 124.3,27.9 110.2,22.8 C95,17.3 77.8,18.2 65.3,25.1 C54.3,31.2 49.2,37 44.3,43.1 C39.2,36.8 33.1,30.7 25.7,25.2 C23.1,27.7 20.8,30.4 18.5,33.2 C18.5,33.2 18.5,33.2 18.6,33.3 L19.2,33.7 C26.8,39.3 33,45.7 37.9,52.2 C32.7,61 26.9,74.9 25.3,91.1 C23.5,109.8 28.2,127.6 33.7,136.9 C37.3,143 42.7,146.5 48.2,146.5 C48.8,146.5 49.5,146.5 50.1,146.4 C54,145.8 61,142.9 64.3,129.7 C69.4,109.1 66.2,92.2 64.5,83.1 C63.5,77.5 59.4,65.2 50.8,52 C50.9,51.9 50.9,51.8 51,51.7 L51.3,51.4 C56.3,45.1 60.3,40.1 70.5,34.5 C80.4,29 94.3,28.4 106.6,32.9 C117.2,36.7 128.4,48.8 127.9,66.3 C127.5,80.2 122,89.6 110.1,96.7 C109.9,96.8 109.7,96.9 109.5,97 C106.9,91.7 104.4,86.8 102.4,83.9 C99,79.1 93.8,75.9 88.3,75.6 C83.2,75.3 78.4,77.2 74.8,81.2 C71.1,85.3 69.7,90.4 70.8,95.8 C71.9,101.4 75.8,106.3 80.7,108.5 C84.9,110.4 94.3,111.9 104,110.1 C105.9,114 107.7,117.5 109.1,119.8 L109.3,120 C116.2,130.1 127,146.1 148.8,144.9 C152.3,141 155.5,136.8 158.3,132.4 C137.1,138.7 127.5,127.9 118.1,114" id="Fill-21" fill="#2A2F7C"></path>
            <path d="M639.1,125.2 C636.5,127.4 632.7,128.5 627.4,128.6 C627.1,128.6 626.8,128.6 626.5,128.6 C620.9,128.7 618,128.2 615.4,127.1 L615.2,126.9 C612.1,125.2 609.5,121.4 609.6,115.7 C609.7,111.2 611.1,105.7 617.5,105.1 C623.9,104.5 630.3,104.6 637.1,104.8 C639.3,104.8 641.6,104.9 643.9,104.9 C643.9,106.3 643.9,107.6 643.9,108.7 C644,117 642.5,122.2 639.1,125.2 M661.8,85.2 C660.2,71.5 649.7,61.5 635.5,60.2 C628.8,59.6 621.7,59.3 614.4,59.4 C614.3,59.4 614.3,59.4 614.2,59.4 L595.4,59.4 C594.4,59.6 593.2,59.7 591.7,59.7 C591.2,59.7 590.7,59.7 590.2,59.8 C582.9,60.1 577.2,62.5 573.1,65.6 C567.6,69.8 564.5,75.4 563.2,79.5 C563.2,79.5 563.2,79.5 563.1,79.5 C559.6,90.9 557.9,96.9 556,103.2 C556,103.3 556,103.3 556,103.4 C555.9,103.7 551.8,119.6 551.5,120.6 C551.2,121.8 550.9,122.7 550.1,123.3 C550.1,123.3 550.1,123.3 550.1,123.3 C550.1,123.3 550.1,123.3 550.1,123.3 C549.6,123.6 548.9,123.8 547.9,123.9 C545.1,124 544.9,122.8 544,120.4 C543.4,118.6 537.2,99.1 534.1,89 C532.4,85.6 530.5,84.5 526.5,84.1 L526.3,84.1 L517.3,84.1 C516.3,84.1 515.6,84.2 515.1,84.4 C514,84.8 513.9,85.5 514,86.6 L515.4,92 C519.3,105.8 521.4,112.9 528,134.4 C530.3,141.9 536.6,146.8 548,146.8 C559.4,146.8 563.8,142.2 566.5,134.8 C567.6,131.8 571.1,120 575.5,104.9 C577,99.9 578.5,94.7 580.1,89.4 C582,83.8 585.4,77.3 596.9,77.3 C597.6,77.3 598.2,77.3 598.7,77.2 L614.4,77.2 C614.5,77.2 614.6,77.2 614.7,77.2 C618.8,77.2 622.7,77.2 626.8,77.3 L629.9,77.3 C637.2,77.4 641,80.3 642.9,87.5 C641.3,87.5 639.8,87.5 638.2,87.5 C630.1,87.4 622.5,87.3 614.7,88.1 C601.4,89.5 592.4,99.1 590.5,113.8 C588.9,127 596.6,139.5 609,143.7 C614.9,145.7 620.5,146.6 626.8,146.6 C628.2,146.6 629.6,146.6 631,146.5 C649.1,145.4 660,136.4 661.8,121 C663.2,109.3 663.2,97.4 661.8,85.2" id="Fill-23" fill="#2A2F7C"></path>
        </g>
    </g>
</svg>